{
	"asset":{
		"generator":"Khronos glTF Blender I/O v3.5.30",
		"version":"2.0"
	},
	"scene":0,
	"scenes":[
		{
			"name":"Scene",
			"nodes":[
				0
			]
		}
	],
	"nodes":[
		{
			"mesh":0,
			"name":"Icosphere.001",
			"translation":[
				0.0028069019317626953,
				0,
				0
			]
		}
	],
	"animations":[
		{
			"channels":[
				{
					"sampler":0,
					"target":{
						"node":0,
						"path":"translation"
					}
				},
				{
					"sampler":1,
					"target":{
						"node":0,
						"path":"rotation"
					}
				},
				{
					"sampler":2,
					"target":{
						"node":0,
						"path":"scale"
					}
				}
			],
			"name":"Icosphere.001",
			"samplers":[
				{
					"input":4,
					"interpolation":"LINEAR",
					"output":5
				},
				{
					"input":4,
					"interpolation":"LINEAR",
					"output":6
				},
				{
					"input":4,
					"interpolation":"LINEAR",
					"output":7
				}
			]
		}
	],
	"materials":[
		{
			"doubleSided":true,
			"name":"Material.001",
			"pbrMetallicRoughness":{
				"baseColorFactor":[
					0.2307400107383728,
					0.5149176120758057,
					0.7991030216217041,
					1
				],
				"metallicFactor":0,
				"roughnessFactor":0.5
			}
		}
	],
	"meshes":[
		{
			"name":"Icosphere.002",
			"primitives":[
				{
					"attributes":{
						"POSITION":0,
						"TEXCOORD_0":1,
						"NORMAL":2
					},
					"indices":3,
					"material":0
				}
			]
		}
	],
	"accessors":[
		{
			"bufferView":0,
			"componentType":5126,
			"count":5083,
			"max":[
				0.9995906352996826,
				1,
				0.9999999403953552
			],
			"min":[
				-0.9995906352996826,
				-1,
				-0.9999999403953552
			],
			"type":"VEC3"
		},
		{
			"bufferView":1,
			"componentType":5126,
			"count":5083,
			"type":"VEC2"
		},
		{
			"bufferView":2,
			"componentType":5126,
			"count":5083,
			"type":"VEC3"
		},
		{
			"bufferView":3,
			"componentType":5123,
			"count":29040,
			"type":"SCALAR"
		},
		{
			"bufferView":4,
			"componentType":5126,
			"count":50,
			"max":[
				2.0833333333333335
			],
			"min":[
				0.041666666666666664
			],
			"type":"SCALAR"
		},
		{
			"bufferView":5,
			"componentType":5126,
			"count":50,
			"type":"VEC3"
		},
		{
			"bufferView":6,
			"componentType":5126,
			"count":50,
			"type":"VEC4"
		},
		{
			"bufferView":7,
			"componentType":5126,
			"count":50,
			"type":"VEC3"
		}
	],
	"bufferViews":[
		{
			"buffer":0,
			"byteLength":60996,
			"byteOffset":0,
			"target":34962
		},
		{
			"buffer":0,
			"byteLength":40664,
			"byteOffset":60996,
			"target":34962
		},
		{
			"buffer":0,
			"byteLength":60996,
			"byteOffset":101660,
			"target":34962
		},
		{
			"buffer":0,
			"byteLength":58080,
			"byteOffset":162656,
			"target":34963
		},
		{
			"buffer":0,
			"byteLength":200,
			"byteOffset":220736
		},
		{
			"buffer":0,
			"byteLength":600,
			"byteOffset":220936
		},
		{
			"buffer":0,
			"byteLength":800,
			"byteOffset":221536
		},
		{
			"buffer":0,
			"byteLength":600,
			"byteOffset":222336
		}
	],
	"buffers":[
		{
			"byteLength":222936,
			"uri":"niceo.bin"
		}
	]
}
